<mxfile host="app.diagrams.net" agent="Mozilla/5.0 (Macintosh; Intel Mac OS X 10_15_7) AppleWebKit/605.1.15 (KHTML, like Gecko) Version/18.5 Safari/605.1.15" version="27.1.4">
  <diagram name="Page-1" id="w3mO_O1aDCXVsdWsET_0">
    <mxGraphModel dx="1479" dy="1874" grid="1" gridSize="10" guides="1" tooltips="1" connect="1" arrows="1" fold="1" page="1" pageScale="1" pageWidth="827" pageHeight="1169" math="0" shadow="0">
      <root>
        <mxCell id="0" />
        <mxCell id="1" parent="0" />
        <mxCell id="iEZ4XQCv6IYgdBa1JnEt-3" style="edgeStyle=orthogonalEdgeStyle;rounded=0;orthogonalLoop=1;jettySize=auto;html=1;entryX=0.5;entryY=0;entryDx=0;entryDy=0;" parent="1" source="cqmFtEDPghIvQ1wZ3LhV-1" target="cqmFtEDPghIvQ1wZ3LhV-4" edge="1">
          <mxGeometry relative="1" as="geometry" />
        </mxCell>
        <mxCell id="cqmFtEDPghIvQ1wZ3LhV-1" value="StartPage" style="rounded=1;whiteSpace=wrap;html=1;strokeColor=light-dark(#0056d6, #ededed);" parent="1" vertex="1">
          <mxGeometry x="60" y="90" width="110" height="60" as="geometry" />
        </mxCell>
        <mxCell id="cqmFtEDPghIvQ1wZ3LhV-7" value="" style="edgeStyle=orthogonalEdgeStyle;rounded=0;orthogonalLoop=1;jettySize=auto;html=1;" parent="1" source="cqmFtEDPghIvQ1wZ3LhV-4" target="cqmFtEDPghIvQ1wZ3LhV-6" edge="1">
          <mxGeometry relative="1" as="geometry" />
        </mxCell>
        <mxCell id="iEZ4XQCv6IYgdBa1JnEt-7" style="edgeStyle=orthogonalEdgeStyle;rounded=0;orthogonalLoop=1;jettySize=auto;html=1;entryX=0.5;entryY=1;entryDx=0;entryDy=0;" parent="1" source="cqmFtEDPghIvQ1wZ3LhV-4" target="cqmFtEDPghIvQ1wZ3LhV-1" edge="1">
          <mxGeometry relative="1" as="geometry" />
        </mxCell>
        <mxCell id="cqmFtEDPghIvQ1wZ3LhV-4" value="Czy uzupełnione wszystkie pola/dobry adres?" style="rhombus;whiteSpace=wrap;html=1;rounded=1;strokeColor=light-dark(#002e7a, #ededed);" parent="1" vertex="1">
          <mxGeometry x="180" y="150" width="90" height="130" as="geometry" />
        </mxCell>
        <mxCell id="cqmFtEDPghIvQ1wZ3LhV-17" value="" style="edgeStyle=orthogonalEdgeStyle;rounded=0;orthogonalLoop=1;jettySize=auto;html=1;" parent="1" source="cqmFtEDPghIvQ1wZ3LhV-6" target="cqmFtEDPghIvQ1wZ3LhV-16" edge="1">
          <mxGeometry relative="1" as="geometry" />
        </mxCell>
        <mxCell id="iEZ4XQCv6IYgdBa1JnEt-8" style="edgeStyle=orthogonalEdgeStyle;rounded=0;orthogonalLoop=1;jettySize=auto;html=1;entryX=0.5;entryY=1;entryDx=0;entryDy=0;" parent="1" source="cqmFtEDPghIvQ1wZ3LhV-6" target="cqmFtEDPghIvQ1wZ3LhV-50" edge="1">
          <mxGeometry relative="1" as="geometry" />
        </mxCell>
        <mxCell id="cqmFtEDPghIvQ1wZ3LhV-6" value="Pulpit" style="whiteSpace=wrap;html=1;rounded=1;strokeColor=light-dark(#0433ff, #ededed);" parent="1" vertex="1">
          <mxGeometry x="330" y="185" width="120" height="60" as="geometry" />
        </mxCell>
        <mxCell id="cqmFtEDPghIvQ1wZ3LhV-8" value="T" style="text;html=1;align=center;verticalAlign=middle;resizable=0;points=[];autosize=1;strokeColor=none;fillColor=none;" parent="1" vertex="1">
          <mxGeometry x="270" y="190" width="30" height="30" as="geometry" />
        </mxCell>
        <mxCell id="cqmFtEDPghIvQ1wZ3LhV-15" value="N" style="text;html=1;align=center;verticalAlign=middle;resizable=0;points=[];autosize=1;strokeColor=none;fillColor=none;" parent="1" vertex="1">
          <mxGeometry x="140" y="190" width="30" height="30" as="geometry" />
        </mxCell>
        <mxCell id="cqmFtEDPghIvQ1wZ3LhV-19" value="" style="edgeStyle=orthogonalEdgeStyle;rounded=0;orthogonalLoop=1;jettySize=auto;html=1;" parent="1" source="cqmFtEDPghIvQ1wZ3LhV-16" target="cqmFtEDPghIvQ1wZ3LhV-18" edge="1">
          <mxGeometry relative="1" as="geometry" />
        </mxCell>
        <mxCell id="vQr-79zJHYF0OWHqj4j--2" style="edgeStyle=orthogonalEdgeStyle;rounded=0;orthogonalLoop=1;jettySize=auto;html=1;entryX=0.5;entryY=1;entryDx=0;entryDy=0;exitX=0.5;exitY=1;exitDx=0;exitDy=0;" edge="1" parent="1" source="cqmFtEDPghIvQ1wZ3LhV-16" target="cqmFtEDPghIvQ1wZ3LhV-26">
          <mxGeometry relative="1" as="geometry">
            <Array as="points">
              <mxPoint x="390" y="380" />
              <mxPoint x="390" y="380" />
              <mxPoint x="390" y="480" />
              <mxPoint x="523" y="480" />
            </Array>
          </mxGeometry>
        </mxCell>
        <mxCell id="cqmFtEDPghIvQ1wZ3LhV-16" value="Dodaj zadanie" style="whiteSpace=wrap;html=1;rounded=1;strokeColor=light-dark(#0433ff, #ededed);" parent="1" vertex="1">
          <mxGeometry x="330" y="300" width="120" height="60" as="geometry" />
        </mxCell>
        <mxCell id="cqmFtEDPghIvQ1wZ3LhV-21" value="" style="edgeStyle=orthogonalEdgeStyle;rounded=0;orthogonalLoop=1;jettySize=auto;html=1;" parent="1" source="cqmFtEDPghIvQ1wZ3LhV-18" target="cqmFtEDPghIvQ1wZ3LhV-20" edge="1">
          <mxGeometry relative="1" as="geometry" />
        </mxCell>
        <mxCell id="iEZ4XQCv6IYgdBa1JnEt-10" style="edgeStyle=orthogonalEdgeStyle;rounded=0;orthogonalLoop=1;jettySize=auto;html=1;exitX=0;exitY=0.5;exitDx=0;exitDy=0;" parent="1" source="cqmFtEDPghIvQ1wZ3LhV-18" target="cqmFtEDPghIvQ1wZ3LhV-6" edge="1">
          <mxGeometry relative="1" as="geometry" />
        </mxCell>
        <mxCell id="cqmFtEDPghIvQ1wZ3LhV-18" value="Czy dodano zadanie?" style="rhombus;whiteSpace=wrap;html=1;rounded=1;strokeColor=light-dark(#002e7a, #ededed);" parent="1" vertex="1">
          <mxGeometry x="530" y="175" width="80" height="80" as="geometry" />
        </mxCell>
        <mxCell id="iEZ4XQCv6IYgdBa1JnEt-11" style="edgeStyle=orthogonalEdgeStyle;rounded=0;orthogonalLoop=1;jettySize=auto;html=1;exitX=0.5;exitY=0;exitDx=0;exitDy=0;" parent="1" source="cqmFtEDPghIvQ1wZ3LhV-20" target="cqmFtEDPghIvQ1wZ3LhV-35" edge="1">
          <mxGeometry relative="1" as="geometry" />
        </mxCell>
        <mxCell id="iEZ4XQCv6IYgdBa1JnEt-24" style="edgeStyle=orthogonalEdgeStyle;rounded=0;orthogonalLoop=1;jettySize=auto;html=1;exitX=0.75;exitY=1;exitDx=0;exitDy=0;entryX=0.5;entryY=0;entryDx=0;entryDy=0;" parent="1" source="cqmFtEDPghIvQ1wZ3LhV-20" target="cqmFtEDPghIvQ1wZ3LhV-50" edge="1">
          <mxGeometry relative="1" as="geometry">
            <Array as="points">
              <mxPoint x="800" y="265" />
              <mxPoint x="900" y="265" />
              <mxPoint x="900" />
              <mxPoint x="390" />
            </Array>
          </mxGeometry>
        </mxCell>
        <mxCell id="cqmFtEDPghIvQ1wZ3LhV-20" value="Zadania" style="whiteSpace=wrap;html=1;rounded=1;strokeColor=light-dark(#0433ff, #ededed);" parent="1" vertex="1">
          <mxGeometry x="710" y="185" width="120" height="60" as="geometry" />
        </mxCell>
        <mxCell id="cqmFtEDPghIvQ1wZ3LhV-22" value="T" style="text;html=1;align=center;verticalAlign=middle;resizable=0;points=[];autosize=1;strokeColor=none;fillColor=none;" parent="1" vertex="1">
          <mxGeometry x="580" y="380" width="30" height="30" as="geometry" />
        </mxCell>
        <mxCell id="cqmFtEDPghIvQ1wZ3LhV-25" value="N" style="text;html=1;align=center;verticalAlign=middle;resizable=0;points=[];autosize=1;strokeColor=none;fillColor=none;" parent="1" vertex="1">
          <mxGeometry x="480" y="185" width="30" height="30" as="geometry" />
        </mxCell>
        <mxCell id="cqmFtEDPghIvQ1wZ3LhV-31" style="edgeStyle=orthogonalEdgeStyle;rounded=0;orthogonalLoop=1;jettySize=auto;html=1;exitX=0;exitY=0.5;exitDx=0;exitDy=0;entryX=0;entryY=0.5;entryDx=0;entryDy=0;" parent="1" source="cqmFtEDPghIvQ1wZ3LhV-26" target="cqmFtEDPghIvQ1wZ3LhV-16" edge="1">
          <mxGeometry relative="1" as="geometry" />
        </mxCell>
        <mxCell id="iEZ4XQCv6IYgdBa1JnEt-9" style="edgeStyle=orthogonalEdgeStyle;rounded=0;orthogonalLoop=1;jettySize=auto;html=1;exitX=1;exitY=0.5;exitDx=0;exitDy=0;" parent="1" source="cqmFtEDPghIvQ1wZ3LhV-26" edge="1">
          <mxGeometry relative="1" as="geometry">
            <mxPoint x="740" y="250" as="targetPoint" />
          </mxGeometry>
        </mxCell>
        <mxCell id="cqmFtEDPghIvQ1wZ3LhV-26" value="Czy wypełniono wszystkie dane?" style="rhombus;whiteSpace=wrap;html=1;rounded=1;strokeColor=light-dark(#002e7a, #ededed);" parent="1" vertex="1">
          <mxGeometry x="480" y="360" width="85" height="100" as="geometry" />
        </mxCell>
        <mxCell id="cqmFtEDPghIvQ1wZ3LhV-30" value="T" style="text;html=1;align=center;verticalAlign=middle;resizable=0;points=[];autosize=1;strokeColor=none;fillColor=none;" parent="1" vertex="1">
          <mxGeometry x="620" y="185" width="30" height="30" as="geometry" />
        </mxCell>
        <mxCell id="cqmFtEDPghIvQ1wZ3LhV-32" value="N" style="text;html=1;align=center;verticalAlign=middle;resizable=0;points=[];autosize=1;strokeColor=none;fillColor=none;" parent="1" vertex="1">
          <mxGeometry x="440" y="380" width="30" height="30" as="geometry" />
        </mxCell>
        <mxCell id="iEZ4XQCv6IYgdBa1JnEt-15" style="edgeStyle=orthogonalEdgeStyle;rounded=0;orthogonalLoop=1;jettySize=auto;html=1;exitX=0;exitY=0.5;exitDx=0;exitDy=0;" parent="1" source="cqmFtEDPghIvQ1wZ3LhV-35" target="cqmFtEDPghIvQ1wZ3LhV-37" edge="1">
          <mxGeometry relative="1" as="geometry" />
        </mxCell>
        <mxCell id="iEZ4XQCv6IYgdBa1JnEt-22" style="edgeStyle=orthogonalEdgeStyle;rounded=0;orthogonalLoop=1;jettySize=auto;html=1;exitX=1;exitY=0.5;exitDx=0;exitDy=0;entryX=1;entryY=0.25;entryDx=0;entryDy=0;" parent="1" source="cqmFtEDPghIvQ1wZ3LhV-35" target="cqmFtEDPghIvQ1wZ3LhV-20" edge="1">
          <mxGeometry relative="1" as="geometry" />
        </mxCell>
        <mxCell id="cqmFtEDPghIvQ1wZ3LhV-35" value="Czy są zadania?" style="rhombus;whiteSpace=wrap;html=1;rounded=1;strokeColor=light-dark(#001e57, #ededed);" parent="1" vertex="1">
          <mxGeometry x="725" y="50" width="90" height="90" as="geometry" />
        </mxCell>
        <mxCell id="iEZ4XQCv6IYgdBa1JnEt-23" style="edgeStyle=orthogonalEdgeStyle;rounded=0;orthogonalLoop=1;jettySize=auto;html=1;entryX=1;entryY=0.75;entryDx=0;entryDy=0;exitX=0.5;exitY=0;exitDx=0;exitDy=0;" parent="1" source="cqmFtEDPghIvQ1wZ3LhV-37" target="cqmFtEDPghIvQ1wZ3LhV-20" edge="1">
          <mxGeometry relative="1" as="geometry">
            <Array as="points">
              <mxPoint x="580" y="30" />
              <mxPoint x="870" y="30" />
              <mxPoint x="870" y="230" />
            </Array>
          </mxGeometry>
        </mxCell>
        <mxCell id="cqmFtEDPghIvQ1wZ3LhV-37" value="Edytuj zadanie" style="whiteSpace=wrap;html=1;rounded=1;strokeColor=light-dark(#0433ff, #ededed);" parent="1" vertex="1">
          <mxGeometry x="520" y="65" width="120" height="60" as="geometry" />
        </mxCell>
        <mxCell id="cqmFtEDPghIvQ1wZ3LhV-39" value="T" style="text;html=1;align=center;verticalAlign=middle;resizable=0;points=[];autosize=1;strokeColor=none;fillColor=none;" parent="1" vertex="1">
          <mxGeometry x="670" y="65" width="30" height="30" as="geometry" />
        </mxCell>
        <mxCell id="cqmFtEDPghIvQ1wZ3LhV-42" value="N" style="text;html=1;align=center;verticalAlign=middle;resizable=0;points=[];autosize=1;strokeColor=none;fillColor=none;" parent="1" vertex="1">
          <mxGeometry x="815" y="65" width="30" height="30" as="geometry" />
        </mxCell>
        <mxCell id="cqmFtEDPghIvQ1wZ3LhV-50" value="Ustawienia" style="whiteSpace=wrap;html=1;rounded=1;strokeColor=light-dark(#0433ff, #ededed);" parent="1" vertex="1">
          <mxGeometry x="330" y="80" width="120" height="60" as="geometry" />
        </mxCell>
        <mxCell id="iEZ4XQCv6IYgdBa1JnEt-6" style="edgeStyle=orthogonalEdgeStyle;rounded=0;orthogonalLoop=1;jettySize=auto;html=1;entryX=0;entryY=0.5;entryDx=0;entryDy=0;" parent="1" source="cqmFtEDPghIvQ1wZ3LhV-58" target="cqmFtEDPghIvQ1wZ3LhV-1" edge="1">
          <mxGeometry relative="1" as="geometry" />
        </mxCell>
        <mxCell id="cqmFtEDPghIvQ1wZ3LhV-58" value="START" style="ellipse;whiteSpace=wrap;html=1;aspect=fixed;fillColor=#dae8fc;strokeColor=#6c8ebf;" parent="1" vertex="1">
          <mxGeometry x="-80" y="80" width="80" height="80" as="geometry" />
        </mxCell>
      </root>
    </mxGraphModel>
  </diagram>
</mxfile>
